<svg width="35" height="35" viewBox="0 0 35 35" fill="none" xmlns="http://www.w3.org/2000/svg">
<path d="M28.7001 15.5799H6.3001C6.11445 15.5799 5.9364 15.5062 5.80512 15.3749C5.67385 15.2436 5.6001 15.0656 5.6001 14.8799C5.6001 14.6943 5.67385 14.5162 5.80512 14.385C5.9364 14.2537 6.11445 14.1799 6.3001 14.1799H28.7001C28.8857 14.1799 29.0638 14.2537 29.1951 14.385C29.3263 14.5162 29.4001 14.6943 29.4001 14.8799C29.4001 15.0656 29.3263 15.2436 29.1951 15.3749C29.0638 15.5062 28.8857 15.5799 28.7001 15.5799Z" fill="#1B1B1B"/>
<path d="M28.7001 9.98008H6.3001C6.11445 9.98008 5.9364 9.90633 5.80512 9.77505C5.67385 9.64378 5.6001 9.46573 5.6001 9.28008C5.6001 9.09443 5.67385 8.91638 5.80512 8.7851C5.9364 8.65383 6.11445 8.58008 6.3001 8.58008H28.7001C28.8857 8.58008 29.0638 8.65383 29.1951 8.7851C29.3263 8.91638 29.4001 9.09443 29.4001 9.28008C29.4001 9.46573 29.3263 9.64378 29.1951 9.77505C29.0638 9.90633 28.8857 9.98008 28.7001 9.98008Z" fill="#1B1B1B"/>
<path d="M16.1001 21.18H6.3001C6.11445 21.18 5.9364 21.1063 5.80512 20.975C5.67385 20.8437 5.6001 20.6657 5.6001 20.48C5.6001 20.2944 5.67385 20.1163 5.80512 19.9851C5.9364 19.8538 6.11445 19.78 6.3001 19.78H16.1001C16.2857 19.78 16.4638 19.8538 16.5951 19.9851C16.7263 20.1163 16.8001 20.2944 16.8001 20.48C16.8001 20.6657 16.7263 20.8437 16.5951 20.975C16.4638 21.1063 16.2857 21.18 16.1001 21.18Z" fill="#1B1B1B"/>
<path d="M16.1001 26.7799H6.3001C6.11445 26.7799 5.9364 26.7061 5.80512 26.5749C5.67385 26.4436 5.6001 26.2655 5.6001 26.0799C5.6001 25.8942 5.67385 25.7162 5.80512 25.5849C5.9364 25.4536 6.11445 25.3799 6.3001 25.3799H16.1001C16.2857 25.3799 16.4638 25.4536 16.5951 25.5849C16.7263 25.7162 16.8001 25.8942 16.8001 26.0799C16.8001 26.2655 16.7263 26.4436 16.5951 26.5749C16.4638 26.7061 16.2857 26.7799 16.1001 26.7799Z" fill="#1B1B1B"/>
<path d="M28.7 26.7799C28.5438 26.78 28.392 26.7277 28.2688 26.6315L25.34 24.3439C25.1997 24.2278 25.1102 24.0615 25.0905 23.8804C25.0708 23.6993 25.1225 23.5177 25.2346 23.3741C25.3467 23.2305 25.5103 23.1362 25.6908 23.1113C25.8712 23.0864 26.0542 23.1328 26.201 23.2407L29.134 25.5283C29.2491 25.6182 29.3331 25.7418 29.3744 25.8818C29.4158 26.0219 29.4123 26.1713 29.3644 26.3093C29.3166 26.4472 29.2268 26.5667 29.1077 26.6511C28.9886 26.7355 28.846 26.7806 28.7 26.7799Z" fill="#1B1B1B"/>
<path d="M23.4011 25.6601C22.6701 25.6601 21.9555 25.4433 21.3477 25.0372C20.7399 24.6311 20.2662 24.0538 19.9864 23.3785C19.7067 22.7031 19.6335 21.96 19.7761 21.243C19.9187 20.5261 20.2707 19.8675 20.7876 19.3506C21.3045 18.8337 21.9631 18.4817 22.68 18.3391C23.397 18.1965 24.1401 18.2697 24.8155 18.5494C25.4908 18.8292 26.0681 19.3029 26.4742 19.9107C26.8803 20.5185 27.0971 21.2331 27.0971 21.9641C27.096 22.944 26.7062 23.8834 26.0133 24.5763C25.3204 25.2692 24.381 25.659 23.4011 25.6601ZM23.4011 19.6681C22.947 19.6681 22.5031 19.8027 22.1255 20.055C21.7479 20.3073 21.4536 20.6659 21.2799 21.0854C21.1061 21.505 21.0606 21.9666 21.1492 22.412C21.2378 22.8574 21.4565 23.2665 21.7776 23.5876C22.0987 23.9087 22.5078 24.1274 22.9532 24.216C23.3985 24.3045 23.8602 24.2591 24.2797 24.0853C24.6993 23.9115 25.0578 23.6172 25.3101 23.2397C25.5624 22.8621 25.6971 22.4182 25.6971 21.9641C25.6963 21.3554 25.4542 20.7718 25.0238 20.3414C24.5934 19.9109 24.0098 19.6688 23.4011 19.6681Z" fill="#1B1B1B"/>
</svg>
